<svg width="140" height="60" viewBox="0 0 102 30" fill="none" xmlns="http://www.w3.org/2000/svg">
  <path d="M101.294 26.0324C101.294 27.6006 99.9969 28.8708 98.393 28.8708H3.47032C1.8672 28.8708 0.565948 27.6006 0.565948 26.0324V3.39726C0.565948 1.82985 1.8672 0.555176 3.47032 0.555176H98.3923C99.9969 0.555176 101.293 1.82985 101.293 3.39726L101.294 26.0324Z" fill="black" />
  <path d="M98.0869 0.589647C99.8336 0.589647 101.255 1.97543 101.255 3.67847V25.748C101.255 27.451 99.8336 28.8368 98.0869 28.8368H3.7726C2.0259 28.8368 0.604585 27.451 0.604585 25.748V3.67847C0.604585 1.97543 2.0259 0.589647 3.7726 0.589647H98.0869ZM98.0869 0.000207853H3.7726C1.69863 0.000207853 3.05176e-05 1.65634 3.05176e-05 3.67847V25.748C3.05176e-05 27.7701 1.69863 29.4263 3.7726 29.4263H98.0869C100.161 29.4263 101.859 27.7701 101.859 25.748V3.67847C101.859 1.65634 100.161 0.000207853 98.0869 0.000207853Z" fill="#A6A6A6" />
  <path d="M22.732 14.5543C22.7101 12.1833 24.7232 11.0298 24.8152 10.9761C23.6752 9.35546 21.9081 9.13403 21.2871 9.11638C19.803 8.9641 18.3634 9.98224 17.6074 9.98224C16.8362 9.98224 15.672 9.13109 14.4173 9.1561C12.8026 9.18038 11.2921 10.0919 10.4636 11.5072C8.75389 14.3932 10.029 18.6342 11.6671 20.967C12.4865 22.1095 13.4439 23.3851 14.6972 23.3402C15.9233 23.2909 16.3813 22.5781 17.8609 22.5781C19.3269 22.5781 19.757 23.3402 21.0351 23.3115C22.351 23.2909 23.1794 22.1639 23.9702 21.0111C24.9171 19.7017 25.2974 18.4121 25.3125 18.3459C25.2815 18.3356 22.7569 17.3961 22.732 14.5543Z" fill="white" />
  <path d="M20.3176 7.58181C20.977 6.77774 21.4282 5.68383 21.303 4.57373C20.3485 4.61493 19.1549 5.21743 18.4675 6.00384C17.8594 6.69682 17.3161 7.83267 17.4565 8.90083C18.5286 8.97881 19.6295 8.37337 20.3176 7.58181Z" fill="white" />
  <path d="M40.4759 23.1758H38.7624L37.8238 20.3001H34.5612L33.6671 23.1758H31.9989L35.2312 13.3857H37.2277L40.4759 23.1758ZM37.5408 19.0937L36.692 16.5373C36.6022 16.2761 36.4339 15.6611 36.1857 14.693H36.1555C36.0567 15.1094 35.8975 15.7244 35.6787 16.5373L34.8449 19.0937H37.5408Z" fill="white" />
  <path d="M48.7883 19.5595C48.7883 20.76 48.4556 21.709 47.7901 22.4057C47.1941 23.0258 46.4539 23.3356 45.5703 23.3356C44.6166 23.3356 43.9315 23.0016 43.5143 22.3336H43.4841V26.0523H41.8755V18.4405C41.8755 17.6857 41.8551 16.9111 41.8159 16.1166H43.2306L43.3204 17.2355H43.3506C43.887 16.3925 44.7011 15.9717 45.7937 15.9717C46.6478 15.9717 47.3608 16.3005 47.9312 16.9589C48.5031 17.6181 48.7883 18.4847 48.7883 19.5595ZM47.1495 19.6168C47.1495 18.9297 46.9911 18.3633 46.6727 17.9175C46.3249 17.4525 45.8578 17.2201 45.2723 17.2201C44.8754 17.2201 44.5148 17.3496 44.1926 17.6048C43.8697 17.8623 43.6584 18.1985 43.5596 18.6149C43.5098 18.8091 43.4849 18.968 43.4849 19.093V20.2701C43.4849 20.7836 43.6463 21.2169 43.9693 21.5707C44.2922 21.9246 44.7117 22.1011 45.2278 22.1011C45.8337 22.1011 46.3052 21.8731 46.6425 21.4184C46.9805 20.9631 47.1495 20.3628 47.1495 19.6168Z" fill="white" />
  <path d="M57.116 19.5595C57.116 20.76 56.7833 21.709 56.117 22.4057C55.5217 23.0258 54.7815 23.3356 53.898 23.3356C52.9443 23.3356 52.2592 23.0016 51.8427 22.3336H51.8125V26.0523H50.2039V18.4405C50.2039 17.6857 50.1835 16.9111 50.1443 16.1166H51.559L51.6488 17.2355H51.679C52.2147 16.3925 53.0288 15.9717 54.1221 15.9717C54.9755 15.9717 55.6885 16.3005 56.2604 16.9589C56.8301 17.6181 57.116 18.4847 57.116 19.5595ZM55.4772 19.6168C55.4772 18.9297 55.318 18.3633 54.9996 17.9175C54.6518 17.4525 54.1862 17.2201 53.6 17.2201C53.2024 17.2201 52.8424 17.3496 52.5195 17.6048C52.1966 17.8623 51.9861 18.1985 51.8872 18.6149C51.8382 18.8091 51.8125 18.968 51.8125 19.093V20.2701C51.8125 20.7836 51.974 21.2169 52.2954 21.5707C52.6184 21.9238 53.0379 22.1011 53.5555 22.1011C54.1613 22.1011 54.6329 21.8731 54.9702 21.4184C55.3082 20.9631 55.4772 20.3628 55.4772 19.6168Z" fill="white" />
  <path d="M66.4267 20.4307C66.4267 21.2635 66.1301 21.941 65.5348 22.4641C64.8807 23.0357 63.97 23.3211 62.7997 23.3211C61.7192 23.3211 60.8531 23.1181 60.1974 22.7112L60.5701 21.404C61.2763 21.8204 62.0512 22.0293 62.8955 22.0293C63.5014 22.0293 63.973 21.8954 64.3118 21.6291C64.649 21.3628 64.8173 21.0053 64.8173 20.5595C64.8173 20.1622 64.6784 19.8275 64.4 19.556C64.1231 19.2846 63.6606 19.0323 63.0147 18.7991C61.2567 18.1598 60.3785 17.2233 60.3785 15.9918C60.3785 15.187 60.6863 14.5271 61.3028 14.0136C61.9169 13.4994 62.7363 13.2427 63.761 13.2427C64.6747 13.2427 65.4337 13.3979 66.0396 13.7076L65.6374 14.9862C65.0715 14.686 64.4317 14.536 63.7157 14.536C63.1498 14.536 62.7077 14.672 62.3908 14.9428C62.1229 15.1848 61.9886 15.4798 61.9886 15.8292C61.9886 16.2162 62.1418 16.5362 62.4496 16.7878C62.7175 17.0202 63.2041 17.2718 63.9104 17.5433C64.7743 17.8824 65.4088 18.2789 65.817 18.7336C66.2237 19.1867 66.4267 19.7539 66.4267 20.4307Z" fill="white" />
  <path d="M71.7453 17.2939H69.9722V20.7213C69.9722 21.593 70.2845 22.0285 70.9108 22.0285C71.1983 22.0285 71.4367 22.0043 71.6253 21.9557L71.6698 23.1467C71.3529 23.2622 70.9357 23.3204 70.4189 23.3204C69.7836 23.3204 69.2871 23.1313 68.9287 22.7539C68.5718 22.3758 68.3922 21.7416 68.3922 20.8508V17.2924H67.3359V16.1154H68.3922V14.8228L69.9722 14.3579V16.1154H71.7453V17.2939Z" fill="white" />
  <path d="M79.7453 19.5884C79.7453 20.6735 79.4269 21.5643 78.7916 22.261C78.1253 22.9783 77.2411 23.3358 76.1387 23.3358C75.0764 23.3358 74.2305 22.9922 73.5998 22.3051C72.969 21.618 72.6536 20.7507 72.6536 19.7054C72.6536 18.6114 72.9781 17.7154 73.6292 17.0188C74.2788 16.3214 75.1556 15.9727 76.2579 15.9727C77.3203 15.9727 78.1751 16.3162 78.8203 17.004C79.4374 17.6713 79.7453 18.5327 79.7453 19.5884ZM78.0763 19.6391C78.0763 18.9881 77.9337 18.4297 77.6447 17.9641C77.3075 17.4006 76.8253 17.1195 76.2006 17.1195C75.554 17.1195 75.0628 17.4013 74.7255 17.9641C74.4365 18.4305 74.2939 18.9977 74.2939 19.6686C74.2939 20.3196 74.4365 20.878 74.7255 21.3429C75.0733 21.9064 75.5592 22.1874 76.1862 22.1874C76.8004 22.1874 77.2826 21.9005 77.6304 21.3282C77.9269 20.8537 78.0763 20.2895 78.0763 19.6391Z" fill="white" />
  <path d="M84.9742 17.496C84.815 17.4673 84.6452 17.4525 84.4672 17.4525C83.9013 17.4525 83.4636 17.6607 83.1558 18.0778C82.8879 18.4457 82.7536 18.9106 82.7536 19.4719V23.1759H81.1458L81.1609 18.3397C81.1609 17.5261 81.1405 16.7853 81.1005 16.1173H82.5016L82.5605 17.468H82.605C82.7748 17.0038 83.0426 16.6301 83.4093 16.3498C83.7677 16.0975 84.1548 15.9717 84.572 15.9717C84.7207 15.9717 84.855 15.982 84.9742 16.0004V17.496Z" fill="white" />
  <path d="M92.1684 19.3123C92.1684 19.5934 92.1495 19.8302 92.1095 20.0237H87.2837C87.3025 20.7211 87.5357 21.2545 87.9839 21.6223C88.3905 21.9511 88.9164 22.1159 89.5623 22.1159C90.2768 22.1159 90.9287 22.0048 91.515 21.7819L91.767 22.8707C91.0819 23.162 90.2731 23.3069 89.3397 23.3069C88.217 23.3069 87.3357 22.9847 86.6944 22.341C86.0546 21.6973 85.7339 20.8329 85.7339 19.7486C85.7339 18.6841 86.0319 17.7976 86.6288 17.0907C87.2535 16.3359 88.0978 15.9585 89.1601 15.9585C90.2036 15.9585 90.9936 16.3359 91.5301 17.0907C91.9549 17.6902 92.1684 18.4318 92.1684 19.3123ZM90.6345 18.9055C90.645 18.4406 90.5402 18.0389 90.3221 17.6998C90.0437 17.2635 89.6159 17.0458 89.0402 17.0458C88.5143 17.0458 88.0865 17.2584 87.7598 17.6851C87.4919 18.0242 87.3327 18.431 87.2837 18.9048H90.6345V18.9055Z" fill="white" />
  <path d="M37.0089 7.36349C37.0089 8.22935 36.7425 8.88114 36.2106 9.31885C35.7179 9.72272 35.0177 9.92503 34.1108 9.92503C33.6611 9.92503 33.2763 9.9059 32.9541 9.86765V5.13667C33.3744 5.07046 33.8271 5.03662 34.316 5.03662C35.1799 5.03662 35.8311 5.2198 36.2702 5.58615C36.7621 6.00032 37.0089 6.59252 37.0089 7.36349ZM36.1751 7.38482C36.1751 6.82352 36.0227 6.39316 35.7179 6.09302C35.4131 5.79361 34.9679 5.64353 34.3816 5.64353C34.1327 5.64353 33.9206 5.65972 33.7448 5.69356V9.29016C33.8422 9.30487 34.0202 9.31149 34.279 9.31149C34.8842 9.31149 35.3512 9.14744 35.6802 8.81934C36.0091 8.49124 36.1751 8.01307 36.1751 7.38482Z" fill="white" />
  <path d="M41.4296 8.11961C41.4296 8.65296 41.2734 9.08994 40.961 9.43275C40.6336 9.78513 40.1997 9.96095 39.658 9.96095C39.1359 9.96095 38.7201 9.79248 38.41 9.45408C38.1007 9.11642 37.946 8.69048 37.946 8.17699C37.946 7.63997 38.1052 7.19931 38.4251 6.85723C38.745 6.51516 39.1751 6.34375 39.7168 6.34375C40.239 6.34375 40.6585 6.51221 40.9761 6.84988C41.2779 7.17798 41.4296 7.60171 41.4296 8.11961ZM40.6094 8.14462C40.6094 7.82462 40.5385 7.55022 40.3974 7.32143C40.2314 7.04483 39.9953 6.90652 39.6882 6.90652C39.3705 6.90652 39.1291 7.04483 38.9631 7.32143C38.8212 7.55022 38.7511 7.82903 38.7511 8.1586C38.7511 8.47861 38.822 8.75301 38.9631 8.9818C39.1344 9.2584 39.3728 9.3967 39.6806 9.3967C39.9824 9.3967 40.2194 9.25619 40.3899 8.97444C40.5362 8.74124 40.6094 8.46463 40.6094 8.14462Z" fill="white" />
  <path d="M47.3572 6.41455L46.2442 9.88241H45.5199L45.0589 8.37653C44.942 8.00062 44.8469 7.6269 44.7729 7.25614H44.7586C44.6899 7.6372 44.5949 8.01018 44.4727 8.37653L43.983 9.88241H43.2503L42.2038 6.41455H43.0164L43.4186 8.06315C43.5159 8.45304 43.5959 8.82455 43.66 9.17619H43.6744C43.7332 8.88634 43.8306 8.51704 43.9679 8.0705L44.4727 6.41529H45.117L45.6006 8.03519C45.7176 8.43024 45.8127 8.81057 45.8859 9.17692H45.9077C45.9613 8.82013 46.042 8.4398 46.1492 8.03519L46.5808 6.41529H47.3572V6.41455Z" fill="white" />
  <path d="M51.4564 9.88249H50.6657V7.89623C50.6657 7.28417 50.4273 6.97814 49.9489 6.97814C49.7142 6.97814 49.5249 7.062 49.3777 7.23046C49.2321 7.39893 49.1582 7.59755 49.1582 7.82487V9.88175H48.3674V7.40555C48.3674 7.10099 48.3576 6.77068 48.3388 6.41316H49.0337L49.0707 6.95533H49.0925C49.1846 6.78687 49.3219 6.64783 49.5022 6.53674C49.7165 6.40727 49.9564 6.3418 50.219 6.3418C50.551 6.3418 50.8272 6.44626 51.0467 6.65592C51.3199 6.91266 51.4564 7.29594 51.4564 7.80501V9.88249Z" fill="white" />
  <path d="M53.637 9.88232H52.847V4.82324H53.637V9.88232Z" fill="white" />
  <path d="M58.2923 8.11961C58.2923 8.65296 58.1361 9.08994 57.8237 9.43275C57.4963 9.78513 57.0617 9.96095 56.5207 9.96095C55.9978 9.96095 55.5821 9.79248 55.2727 9.45408C54.9634 9.11642 54.8087 8.69048 54.8087 8.17699C54.8087 7.63997 54.9679 7.19931 55.2878 6.85723C55.6077 6.51516 56.0378 6.34375 56.5788 6.34375C57.1017 6.34375 57.5204 6.51221 57.8388 6.84988C58.1406 7.17798 58.2923 7.60171 58.2923 8.11961ZM57.4714 8.14462C57.4714 7.82462 57.4004 7.55022 57.2593 7.32143C57.0941 7.04483 56.8572 6.90652 56.5509 6.90652C56.2325 6.90652 55.991 7.04483 55.8258 7.32143C55.6839 7.55022 55.6138 7.82903 55.6138 8.1586C55.6138 8.47861 55.6847 8.75301 55.8258 8.9818C55.997 9.2584 56.2355 9.3967 56.5433 9.3967C56.8451 9.3967 57.0813 9.25619 57.2518 8.97444C57.3989 8.74124 57.4714 8.46463 57.4714 8.14462Z" fill="white" />
  <path d="M62.1192 9.88223H61.4092L61.3504 9.48277H61.3285C61.0855 9.80131 60.7392 9.96095 60.2895 9.96095C59.9538 9.96095 59.6821 9.85575 59.4777 9.64682C59.2921 9.45703 59.1992 9.22088 59.1992 8.9406C59.1992 8.51686 59.3803 8.19391 59.7448 7.97027C60.1084 7.74664 60.62 7.63702 61.2787 7.64217V7.57744C61.2787 7.1206 61.0327 6.89255 60.54 6.89255C60.1892 6.89255 59.8798 6.97862 59.6127 7.14929L59.452 6.64316C59.7825 6.4438 60.1907 6.34375 60.6721 6.34375C61.6016 6.34375 62.0679 6.82192 62.0679 7.77827V9.05536C62.0679 9.40185 62.0853 9.67772 62.1192 9.88223ZM61.2983 8.69048V8.15566C60.4261 8.14095 59.99 8.37415 59.99 8.85453C59.99 9.0355 60.0398 9.17086 60.1416 9.26134C60.2435 9.35183 60.3733 9.3967 60.5279 9.3967C60.7015 9.3967 60.8637 9.343 61.0116 9.23633C61.1602 9.12893 61.2515 8.99283 61.2855 8.82584C61.2938 8.78832 61.2983 8.74271 61.2983 8.69048Z" fill="white" />
  <path d="M66.6124 9.88232H65.9107L65.8737 9.32543H65.8518C65.6277 9.74917 65.2459 9.96103 64.7095 9.96103C64.2809 9.96103 63.924 9.79698 63.6411 9.46888C63.3581 9.14078 63.217 8.71484 63.217 8.19179C63.217 7.63049 63.3702 7.17586 63.678 6.82863C63.9761 6.50494 64.3413 6.3431 64.7759 6.3431C65.2535 6.3431 65.5877 6.49979 65.7779 6.81392H65.7929V4.82324H66.5844V8.94804C66.5844 9.2857 66.5935 9.59689 66.6124 9.88232ZM65.7929 8.41984V7.84162C65.7929 7.74157 65.7854 7.66065 65.7711 7.59886C65.7265 7.41347 65.6307 7.25751 65.4851 7.13172C65.338 7.00592 65.1607 6.94265 64.9562 6.94265C64.6612 6.94265 64.4303 7.05668 64.2605 7.28547C64.0923 7.51426 64.007 7.80631 64.007 8.1631C64.007 8.50591 64.0877 8.78399 64.25 8.99806C64.4212 9.22612 64.6521 9.34014 64.9411 9.34014C65.2007 9.34014 65.4081 9.24524 65.5658 9.05471C65.7183 8.87889 65.7929 8.66702 65.7929 8.41984Z" fill="white" />
  <path d="M73.3751 8.11961C73.3751 8.65296 73.2189 9.08994 72.9065 9.43275C72.5791 9.78513 72.146 9.96095 71.6035 9.96095C71.0821 9.96095 70.6664 9.79248 70.3555 9.45408C70.0462 9.11642 69.8915 8.69048 69.8915 8.17699C69.8915 7.63997 70.0507 7.19931 70.3706 6.85723C70.6905 6.51516 71.1206 6.34375 71.6631 6.34375C72.1844 6.34375 72.6047 6.51221 72.9216 6.84988C73.2234 7.17798 73.3751 7.60171 73.3751 8.11961ZM72.5557 8.14462C72.5557 7.82462 72.4847 7.55022 72.3436 7.32143C72.1769 7.04483 71.9415 6.90652 71.6337 6.90652C71.3168 6.90652 71.0753 7.04483 70.9086 7.32143C70.7667 7.55022 70.6965 7.82903 70.6965 8.1586C70.6965 8.47861 70.7675 8.75301 70.9086 8.9818C71.0798 9.2584 71.3183 9.3967 71.6261 9.3967C71.9279 9.3967 72.1656 9.25619 72.3361 8.97444C72.4817 8.74124 72.5557 8.46463 72.5557 8.14462Z" fill="white" />
  <path d="M77.6266 9.88249H76.8366V7.89623C76.8366 7.28417 76.5982 6.97814 76.1191 6.97814C75.8844 6.97814 75.6951 7.062 75.5487 7.23046C75.4023 7.39893 75.3291 7.59755 75.3291 7.82487V9.88175H74.5376V7.40555C74.5376 7.10099 74.5286 6.77068 74.5097 6.41316H75.2039L75.2408 6.95533H75.2627C75.3555 6.78687 75.4929 6.64783 75.6724 6.53674C75.8875 6.40727 76.1266 6.3418 76.39 6.3418C76.7212 6.3418 76.9973 6.44626 77.2169 6.65592C77.4908 6.91266 77.6266 7.29594 77.6266 7.80501V9.88249Z" fill="white" />
  <path d="M82.9483 6.99192H82.0776V8.67656C82.0776 9.10471 82.2323 9.31879 82.5386 9.31879C82.6805 9.31879 82.7982 9.30702 82.891 9.28274L82.9114 9.86758C82.7552 9.92496 82.5499 9.95366 82.2972 9.95366C81.9848 9.95366 81.7419 9.86096 81.5661 9.67558C81.3895 9.4902 81.302 9.17828 81.302 8.74057V6.99192H80.7821V6.41444H81.302V5.77883L82.0769 5.55078V6.4137H82.9476V6.99192H82.9483Z" fill="white" />
  <path d="M87.1344 9.88232H86.3429V7.91077C86.3429 7.28915 86.1045 6.97797 85.6269 6.97797C85.2602 6.97797 85.0097 7.1582 84.8724 7.51867C84.849 7.59444 84.8354 7.68713 84.8354 7.79601V9.88158H84.0454V4.82324H84.8354V6.91323H84.8505C85.0995 6.5329 85.4564 6.3431 85.9189 6.3431C86.2464 6.3431 86.5172 6.44756 86.7323 6.65722C87.0001 6.91838 87.1344 7.3068 87.1344 7.82029V9.88232Z" fill="white" />
  <path d="M91.4524 7.98453C91.4524 8.12283 91.4418 8.23906 91.4229 8.33396H89.0515C89.0621 8.67677 89.1752 8.93793 89.3948 9.1189C89.5955 9.28074 89.8543 9.36167 90.1712 9.36167C90.522 9.36167 90.842 9.30723 91.1302 9.19761L91.2539 9.73317C90.9167 9.87589 90.5198 9.94724 90.0603 9.94724C89.5095 9.94724 89.0756 9.78908 88.7618 9.47275C88.4464 9.15642 88.2902 8.73195 88.2902 8.19934C88.2902 7.67629 88.4358 7.24078 88.7293 6.89355C89.0357 6.52279 89.4499 6.3374 89.9728 6.3374C90.4843 6.3374 90.8729 6.52279 91.1355 6.89355C91.3475 7.18782 91.4524 7.55196 91.4524 7.98453ZM90.6978 7.78516C90.7039 7.55638 90.6518 7.35922 90.5447 7.19297C90.4074 6.97889 90.1984 6.87149 89.9154 6.87149C89.6574 6.87149 89.4469 6.97595 89.2861 7.18561C89.1549 7.3526 89.0772 7.55196 89.0515 7.78516H90.6978Z" fill="white" />
</svg>