<svg width="140" height="60" viewBox="0 0 102 30" fill="none" xmlns="http://www.w3.org/2000/svg">
  <path d="M97.952 29.4258H3.76739C1.69627 29.4258 0 27.7696 0 25.7475V3.67798C0 1.65586 1.69627 -0.000278066 3.76739 -0.000278066H97.952C100.023 -0.000278066 101.719 1.65586 101.719 3.67798V25.7475C101.719 27.7696 100.023 29.4258 97.952 29.4258Z" fill="black" />
  <path d="M97.952 0.589161C99.6963 0.589161 101.116 1.97495 101.116 3.67798V25.7475C101.116 27.4506 99.6963 28.8363 97.952 28.8363H3.76739C2.02309 28.8363 0.603723 27.4506 0.603723 25.7475V3.67798C0.603723 1.97495 2.02309 0.589161 3.76739 0.589161H97.952ZM97.952 -0.000278066H3.76739C1.69627 -0.000278066 0 1.65586 0 3.67798V25.7475C0 27.7696 1.69627 29.4258 3.76739 29.4258H97.952C100.023 29.4258 101.719 27.7696 101.719 25.7475V3.67798C101.719 1.65586 100.023 -0.000278066 97.952 -0.000278066Z" fill="#A6A6A6" />
  <path d="M35.728 7.53539C35.728 8.14966 35.5396 8.64162 35.1685 9.00853C34.7418 9.44348 34.1861 9.66234 33.5052 9.66234C32.8544 9.66234 32.2987 9.4398 31.8428 9.00117C31.386 8.5561 31.1581 8.00988 31.1581 7.35607C31.1581 6.70226 31.386 6.15604 31.8428 5.71465C32.2987 5.27234 32.8544 5.0498 33.5052 5.0498C33.8292 5.0498 34.1381 5.11509 34.4329 5.23648C34.7268 5.35878 34.966 5.5243 35.1393 5.72844L34.7456 6.1165C34.4433 5.76799 34.0317 5.59603 33.5052 5.59603C33.0305 5.59603 32.6189 5.75787 32.2695 6.08431C31.9238 6.41168 31.7505 6.8356 31.7505 7.35607C31.7505 7.87655 31.9238 8.30414 32.2695 8.63151C32.6189 8.95427 33.0305 9.1198 33.5052 9.1198C34.0091 9.1198 34.4329 8.95427 34.7673 8.62783C34.9877 8.41173 35.1129 8.11379 35.1459 7.73309H33.5052V7.20159H35.694C35.7204 7.31653 35.728 7.4278 35.728 7.53539Z" fill="white" stroke="white" stroke-width="0.16" stroke-miterlimit="10" />
  <path d="M39.2006 5.6925H37.1446V7.09024H38.9981V7.62175H37.1446V9.01949H39.2006V9.56111H36.5625V5.15088H39.2006V5.6925Z" fill="white" stroke="white" stroke-width="0.16" stroke-miterlimit="10" />
  <path d="M41.6512 9.56111H41.0691V5.6925H39.808V5.15088H42.9133V5.6925H41.6512V9.56111Z" fill="white" stroke="white" stroke-width="0.16" stroke-miterlimit="10" />
  <path d="M45.1606 9.56111V5.15088H45.7417V9.56111H45.1606Z" fill="white" stroke="white" stroke-width="0.16" stroke-miterlimit="10" />
  <path d="M48.3177 9.56111H47.7404V5.6925H46.4745V5.15088H49.5835V5.6925H48.3177V9.56111Z" fill="white" stroke="white" stroke-width="0.16" stroke-miterlimit="10" />
  <path d="M55.4626 8.99382C55.0171 9.43981 54.4652 9.66234 53.8068 9.66234C53.1447 9.66234 52.5928 9.43981 52.1473 8.99382C51.7027 8.54875 51.4814 8.00253 51.4814 7.35607C51.4814 6.70962 51.7027 6.1634 52.1473 5.71833C52.5928 5.27234 53.1447 5.0498 53.8068 5.0498C54.4614 5.0498 55.0133 5.27234 55.4588 5.72201C55.9071 6.17075 56.1285 6.7133 56.1285 7.35607C56.1285 8.00253 55.9071 8.54875 55.4626 8.99382ZM52.5777 8.62415C52.913 8.95427 53.3208 9.1198 53.8068 9.1198C54.289 9.1198 54.7006 8.95427 55.0321 8.62415C55.3665 8.29403 55.536 7.87011 55.536 7.35607C55.536 6.84204 55.3665 6.41812 55.0321 6.08799C54.7006 5.75787 54.289 5.59235 53.8068 5.59235C53.3208 5.59235 52.913 5.75787 52.5777 6.08799C52.2433 6.41812 52.0738 6.84204 52.0738 7.35607C52.0738 7.87011 52.2433 8.29403 52.5777 8.62415Z" fill="white" stroke="white" stroke-width="0.16" stroke-miterlimit="10" />
  <path d="M56.945 9.56111V5.15088H57.6514L59.8478 8.58085H59.8732L59.8478 7.73301V5.15088H60.4289V9.56111H59.8223L57.5224 5.96193H57.4969L57.5224 6.81345V9.56111H56.945Z" fill="white" stroke="white" stroke-width="0.16" stroke-miterlimit="10" />
  <path d="M51.3382 16.0019C49.5684 16.0019 48.1227 17.3169 48.1227 19.1312C48.1227 20.9308 49.5684 22.2596 51.3382 22.2596C53.1117 22.2596 54.5574 20.9308 54.5574 19.1312C54.5574 17.3169 53.1117 16.0019 51.3382 16.0019ZM51.3382 21.0274C50.3671 21.0274 49.5317 20.2448 49.5317 19.1312C49.5317 18.0029 50.3671 17.2342 51.3382 17.2342C52.3092 17.2342 53.1484 18.0029 53.1484 19.1312C53.1484 20.2448 52.3092 21.0274 51.3382 21.0274ZM44.3223 16.0019C42.5488 16.0019 41.1069 17.3169 41.1069 19.1312C41.1069 20.9308 42.5488 22.2596 44.3223 22.2596C46.0949 22.2596 47.5378 20.9308 47.5378 19.1312C47.5378 17.3169 46.0949 16.0019 44.3223 16.0019ZM44.3223 21.0274C43.3504 21.0274 42.5121 20.2448 42.5121 19.1312C42.5121 18.0029 43.3504 17.2342 44.3223 17.2342C45.2934 17.2342 46.1288 18.0029 46.1288 19.1312C46.1288 20.2448 45.2934 21.0274 44.3223 21.0274ZM35.9738 16.9611V18.2907H39.226C39.1309 19.0337 38.8766 19.58 38.4867 19.9607C38.012 20.4205 37.2726 20.9308 35.9738 20.9308C33.9724 20.9308 32.4052 19.3538 32.4052 17.3997C32.4052 15.4456 33.9724 13.8686 35.9738 13.8686C37.056 13.8686 37.8434 14.2814 38.4245 14.8166L39.3842 13.8796C38.5714 13.1219 37.4902 12.5398 35.9738 12.5398C33.2293 12.5398 30.9227 14.7201 30.9227 17.3997C30.9227 20.0793 33.2293 22.2596 35.9738 22.2596C37.4572 22.2596 38.5714 21.7851 39.4473 20.8949C40.3449 20.0186 40.6247 18.7864 40.6247 17.7914C40.6247 17.4824 40.5983 17.1983 40.5512 16.9611H35.9738ZM70.112 17.9919C69.8473 17.2921 69.0307 16.0019 67.3674 16.0019C65.7192 16.0019 64.3469 17.27 64.3469 19.1312C64.3469 20.8839 65.7051 22.2596 67.5257 22.2596C68.9978 22.2596 69.8473 21.3832 70.1967 20.8729L69.1042 20.1621C68.7397 20.6825 68.2434 21.0274 67.5257 21.0274C66.8127 21.0274 66.3013 20.7083 65.9735 20.0793L70.2599 18.3478L70.112 17.9919ZM65.7418 19.0337C65.7051 17.8273 66.7016 17.2093 67.4155 17.2093C67.9749 17.2093 68.4496 17.4824 68.6079 17.8733L65.7418 19.0337ZM62.2579 22.0692H63.6669V12.8736H62.2579V22.0692ZM59.9504 16.699H59.9033C59.5868 16.333 58.9831 16.0019 58.2184 16.0019C56.6134 16.0019 55.146 17.3776 55.146 19.1413C55.146 20.8949 56.6134 22.2596 58.2184 22.2596C58.9831 22.2596 59.5868 21.9258 59.9033 21.5488H59.9504V21.9975C59.9504 23.1939 59.2958 23.8366 58.24 23.8366C57.3792 23.8366 56.8451 23.2297 56.6247 22.7194L55.3994 23.2187C55.7526 24.0481 56.6878 25.0688 58.24 25.0688C59.892 25.0688 61.2859 24.1199 61.2859 21.8108V16.1923H59.9504V16.699ZM58.3389 21.0274C57.3679 21.0274 56.555 20.2338 56.555 19.1413C56.555 18.0388 57.3679 17.2342 58.3389 17.2342C59.2958 17.2342 60.0502 18.0388 60.0502 19.1413C60.0502 20.2338 59.2958 21.0274 58.3389 21.0274ZM76.7087 12.8736H73.3387V22.0692H74.744V18.585H76.7087C78.2693 18.585 79.7998 17.4824 79.7998 15.7288C79.7998 13.9761 78.2655 12.8736 76.7087 12.8736ZM76.7454 17.3059H74.744V14.1527H76.7454C77.7946 14.1527 78.3936 15.0033 78.3936 15.7288C78.3936 16.4406 77.7946 17.3059 76.7454 17.3059ZM85.4321 15.9845C84.4167 15.9845 83.3609 16.4222 82.9267 17.3923L84.1738 17.9027C84.4422 17.3923 84.9357 17.2268 85.4575 17.2268C86.1865 17.2268 86.9258 17.6544 86.9371 18.4094V18.5059C86.6828 18.3625 86.1384 18.15 85.4688 18.15C84.1257 18.15 82.7572 18.8719 82.7572 20.2191C82.7572 21.4513 83.8573 22.2449 85.0939 22.2449C86.0395 22.2449 86.5613 21.8283 86.8891 21.3437H86.9371V22.0545H88.2943V18.5271C88.2943 16.8967 87.0473 15.9845 85.4321 15.9845ZM85.2625 21.0237C84.8029 21.0237 84.1625 20.8012 84.1625 20.2448C84.1625 19.5331 84.9611 19.26 85.6525 19.26C86.2712 19.26 86.5613 19.3933 86.9371 19.5689C86.8269 20.4205 86.0763 21.0237 85.2625 21.0237ZM93.239 16.1859L91.6238 20.1722H91.5757L89.9058 16.1859H88.3904L90.8995 21.7566L89.4679 24.8564H90.9362L94.8025 16.1859H93.239ZM80.5721 22.0692H81.9811V12.8736H80.5721V22.0692Z" fill="white" />
  <path d="M7.86242 5.54549C7.64109 5.7717 7.513 6.1239 7.513 6.58V22.8489C7.513 23.305 7.64109 23.6572 7.86242 23.8834L7.91705 23.9331L17.2545 14.8202V14.605L7.91705 5.49216L7.86242 5.54549Z" fill="url(#paint0_linear_5810_3926)" />
  <path d="M20.3637 17.8594L17.2547 14.8202V14.605L20.3675 11.5659L20.4372 11.6054L24.1236 13.6533C25.1756 14.2345 25.1756 15.1908 24.1236 15.7756L20.4372 17.8198L20.3637 17.8594Z" fill="url(#paint1_linear_5810_3926)" />
  <path d="M20.4372 17.8201L17.2547 14.7129L7.86264 23.8837C8.21207 24.2424 8.78188 24.2856 9.42987 23.927L20.4372 17.8201Z" fill="url(#paint2_linear_5810_3926)" />
  <path d="M20.4372 11.6057L9.42987 5.49886C8.78188 5.14391 8.21207 5.18712 7.86264 5.54575L17.2547 14.7129L20.4372 11.6057Z" fill="url(#paint3_linear_5810_3926)" />
  <defs>
    <linearGradient id="paint0_linear_5810_3926" x1="16.4255" y1="23.0184" x2="4.083" y2="10.3768" gradientUnits="userSpaceOnUse">
      <stop stop-color="#00A0FF" />
      <stop offset="0.0066" stop-color="#00A1FF" />
      <stop offset="0.2601" stop-color="#00BEFF" />
      <stop offset="0.5122" stop-color="#00D2FF" />
      <stop offset="0.7604" stop-color="#00DFFF" />
      <stop offset="1" stop-color="#00E3FF" />
    </linearGradient>
    <linearGradient id="paint1_linear_5810_3926" x1="25.4935" y1="14.7116" x2="7.26168" y2="14.7116" gradientUnits="userSpaceOnUse">
      <stop stop-color="#FFE000" />
      <stop offset="0.4087" stop-color="#FFBD00" />
      <stop offset="0.7754" stop-color="#FFA500" />
      <stop offset="1" stop-color="#FF9C00" />
    </linearGradient>
    <linearGradient id="paint2_linear_5810_3926" x1="18.7067" y1="13.0238" x2="1.9693" y2="-4.11915" gradientUnits="userSpaceOnUse">
      <stop stop-color="#FF3A44" />
      <stop offset="1" stop-color="#C31162" />
    </linearGradient>
    <linearGradient id="paint3_linear_5810_3926" x1="5.49846" y1="29.2963" x2="12.9724" y2="21.6413" gradientUnits="userSpaceOnUse">
      <stop stop-color="#32A071" />
      <stop offset="0.0685" stop-color="#2DA771" />
      <stop offset="0.4762" stop-color="#15CF74" />
      <stop offset="0.8009" stop-color="#06E775" />
      <stop offset="1" stop-color="#00F076" />
    </linearGradient>
  </defs>
</svg>