<svg width="28" height="28" viewBox="0 0 28 28" fill="none" xmlns="http://www.w3.org/2000/svg">
  <circle cx="14" cy="14" r="14" fill="#019E7F" />
  <path d="M8.74271 11.2368L11.5588 18.7193L10.8325 18.9926C10.7202 19.0349 10.619 19.0533 10.5289 19.0478C10.4409 19.0376 10.3456 19.0026 10.243 18.9427L4.39232 15.4497C4.49906 15.6695 4.58878 15.876 4.66148 16.0692L6.39084 20.6642L5.14359 21.1336L2.32755 13.6511L3.06958 13.3719C3.12922 13.3494 3.18139 13.3337 3.22609 13.3248C3.273 13.3111 3.31549 13.3069 3.35355 13.3122C3.39383 13.3128 3.4356 13.3227 3.47886 13.3419C3.52082 13.3576 3.57019 13.3823 3.62696 13.4161L9.5012 16.9239C9.44524 16.8071 9.39167 16.6914 9.34051 16.5767C9.28935 16.4621 9.24495 16.3547 9.2073 16.2547L7.49547 11.7062L8.74271 11.2368Z" fill="white" />
  <path d="M15.1335 13.6463C15.0712 13.4807 14.9882 13.3347 14.8845 13.2083C14.7831 13.0771 14.6642 12.9741 14.528 12.8994C14.3917 12.8247 14.2382 12.784 14.0675 12.7773C13.8989 12.7659 13.7182 12.7965 13.5252 12.8692C13.1498 13.0104 12.893 13.2272 12.7547 13.5195C12.6198 13.8105 12.5953 14.1604 12.6811 14.5692L15.1335 13.6463ZM12.9449 15.3501C13.0686 15.6148 13.2066 15.8326 13.3591 16.0036C13.5103 16.1712 13.6737 16.2968 13.8493 16.3803C14.0237 16.4604 14.2091 16.5009 14.4057 16.5018C14.6045 16.4978 14.8092 16.4563 15.0197 16.377C15.2302 16.2978 15.4018 16.2057 15.5345 16.1006C15.6707 15.9942 15.7838 15.8905 15.874 15.7896C15.9678 15.6874 16.0476 15.5963 16.1136 15.5163C16.1832 15.435 16.2583 15.3792 16.339 15.3488C16.4478 15.3079 16.5434 15.3172 16.6259 15.3767L17.1748 15.7018C17.0933 15.9215 16.9845 16.122 16.8484 16.3032C16.711 16.4809 16.557 16.6413 16.3865 16.7842C16.2182 16.9224 16.0375 17.0435 15.8444 17.1477C15.6548 17.2506 15.4653 17.3377 15.2759 17.409C14.9005 17.5502 14.5286 17.6212 14.1604 17.622C13.7909 17.6193 13.4421 17.5438 13.1139 17.3955C12.7845 17.2439 12.4851 17.0178 12.2159 16.7174C11.9453 16.4136 11.7224 16.0288 11.5471 15.5631C11.4108 15.2009 11.3425 14.8386 11.3424 14.4764C11.3409 14.1107 11.4066 13.7689 11.5393 13.4511C11.6743 13.1286 11.8754 12.8383 12.1428 12.5801C12.4136 12.3206 12.7508 12.115 13.1542 11.9631C13.4945 11.8351 13.8287 11.7704 14.1566 11.769C14.4846 11.7677 14.791 11.8316 15.0759 11.9607C15.3595 12.0863 15.6156 12.2774 15.8444 12.5339C16.0753 12.7857 16.2628 13.1031 16.4069 13.486C16.4796 13.6792 16.5079 13.8182 16.4918 13.903C16.4744 13.9844 16.406 14.0476 16.2867 14.0925L12.9449 15.3501Z" fill="white" />
  <path d="M24.1458 7.92096L24.4283 13.8758L23.3863 14.268C23.267 14.3129 23.156 14.268 23.0533 14.1334L20.9301 11.4292C20.8596 11.3376 20.7915 11.2471 20.7257 11.1576C20.6622 11.0634 20.6022 10.9678 20.5457 10.8709C20.5636 10.9823 20.5787 11.0968 20.5909 11.2143C20.6053 11.327 20.6161 11.4411 20.6235 11.5565L20.7903 14.985C20.8054 15.1527 20.741 15.2635 20.5971 15.3177L19.5972 15.694L15.8887 11.0285L16.9255 10.6383C17.0202 10.6027 17.1093 10.5948 17.1929 10.6145C17.2764 10.6343 17.3417 10.6747 17.3887 10.7358L19.2295 13.2803C19.3266 13.421 19.417 13.5603 19.5009 13.698C19.5883 13.8345 19.6705 13.9729 19.7473 14.1133C19.7301 13.9505 19.7146 13.787 19.7009 13.6228C19.6907 13.4573 19.6809 13.2877 19.6716 13.1139L19.4951 9.93119C19.4902 9.85427 19.5092 9.78216 19.5519 9.71487C19.5982 9.64626 19.6652 9.59545 19.7529 9.56244L20.3265 9.34655C20.4177 9.31222 20.5034 9.30559 20.5834 9.32667C20.6669 9.34643 20.7322 9.38685 20.7792 9.44792L22.7187 11.9672C22.8227 12.1052 22.9226 12.2429 23.0183 12.3802C23.1162 12.5127 23.2124 12.6458 23.3068 12.7796C23.2421 12.4692 23.1934 12.143 23.1607 11.8008L22.8882 8.66603C22.8868 8.58779 22.9092 8.51437 22.9555 8.44575C23.0018 8.37714 23.0687 8.32633 23.1565 8.29331L24.1458 7.92096Z" fill="white" />
</svg>