<svg width="14" height="12" viewBox="0 0 14 12" fill="none" xmlns="http://www.w3.org/2000/svg">
  <g clip-path="url(#clip0_5801_1120)">
    <path d="M10.4028 4.39911L7.57753 0.251102C7.44141 0.106543 7.2591 0.0174327 7.06418 0.000125736C6.96483 -0.00604041 6.86559 0.013736 6.77567 0.0576209C6.68575 0.101506 6.60807 0.16805 6.54988 0.251102L3.72558 4.39911H0.643618C0.560394 4.39174 0.476612 4.40254 0.397744 4.43085C0.318876 4.45916 0.246716 4.50433 0.18602 4.56336C0.125324 4.62239 0.0774526 4.69397 0.0455627 4.77338C0.0136727 4.85279 -0.00150438 4.93823 0.000998509 5.02411V5.21512L1.60614 11.0551C1.6864 11.325 1.84769 11.5618 2.06688 11.7316C2.28608 11.9013 2.55193 11.9954 2.82628 12.0001H11.1757C11.4529 12.0076 11.7243 11.9182 11.9458 11.7466C12.1672 11.575 12.3255 11.3312 12.3949 11.0551L14 5.21512V5.02411C14.0025 4.93823 13.9873 4.85279 13.9554 4.77338C13.9236 4.69397 13.8757 4.62239 13.815 4.56336C13.7543 4.50433 13.6821 4.45916 13.6033 4.43085C13.5244 4.40254 13.4406 4.39174 13.3574 4.39911H10.4028ZM5.13433 4.39911L7.06323 1.63211L8.98821 4.39911H5.13433ZM7.06323 9.4231C6.8242 9.41116 6.59382 9.32739 6.40064 9.1821C6.20746 9.03682 6.05996 8.83641 5.97642 8.60575C5.89288 8.37509 5.87696 8.12431 5.93064 7.88443C5.98432 7.64456 6.10523 7.42615 6.2784 7.25626C6.45158 7.08637 6.66939 6.97245 6.90488 6.92865C7.14037 6.88485 7.3832 6.91308 7.60325 7.00983C7.8233 7.10658 8.01091 7.26761 8.14285 7.47297C8.27481 7.67832 8.34531 7.91896 8.34559 8.1651C8.33492 8.50587 8.19452 8.82869 7.95466 9.064C7.71479 9.29931 7.39466 9.42826 7.06323 9.4231Z" fill="black" />
  </g>
  <defs>
    <clipPath id="clip0_5801_1120">
      <rect width="14" height="12" fill="white" />
    </clipPath>
  </defs>
</svg>